<svg width="24" height="24" xmlns="http://www.w3.org/2000/svg"><g fill="none" fill-rule="evenodd"><path d="M0 0h24v24H0z"/><g fill-rule="nonzero"><path d="M12 20a8 8 0 110-16 8 8 0 110 16z" fill="#007FFC"/><path d="M12 7.2c-1.753 0-3.2 1.42-3.2 3.164 0 1.064.428 1.921 1.281 2.493v1.023c0 .116.07.227.157.306.092.08.214.12.337.11l2.934-.232c.22-.017.411-.198.411-.416v-.784a3.075 3.075 0 001.28-2.5C15.2 8.62 13.754 7.2 12 7.2z" fill="#FFF"/><path d="M13.276 12.258a.404.404 0 00-.209.369v.636l-2.133.164v-.8a.4.4 0 00-.192-.36c-.735-.422-1.083-1.044-1.083-1.903a2.338 2.338 0 012.337-2.33 2.342 2.342 0 012.343 2.33c0 .834-.391 1.542-1.063 1.894z" fill="#007FFC"/><path d="M13.882 14.952a.413.413 0 00-.145-.284.431.431 0 00-.308-.101l-2.913.208a.43.43 0 00-.291.144.413.413 0 00.043.587.432.432 0 00.309.101l2.913-.208a.42.42 0 00.392-.447zm-.928 1.318a.423.423 0 00-.455-.383l-1.057.08a.42.42 0 00-.39.448c.008.11.06.212.146.284a.433.433 0 00.31.1l1.056-.08a.42.42 0 00.39-.448zm.746-5.913c.094-.948-.629-1.455-1.025-1.591a.377.377 0 00-.282.015.363.363 0 00.034.673c.061.022.594.234.535.832-.02.2.129.378.333.399a.378.378 0 00.273-.082.363.363 0 00.133-.246z" fill="#FFF"/></g></g></svg>